<svg width="18" height="18" viewBox="0 0 18 18" fill="none" xmlns="http://www.w3.org/2000/svg">
<path d="M12.3747 2.32885C13.1231 2.80625 13.7714 3.37517 14.3997 3.99995C14.5729 3.83495 14.7462 3.66995 14.9247 3.49995C15.4355 3.06822 15.573 3.00242 16.2747 2.93745C16.4479 2.95807 16.6212 2.9787 16.7997 2.99995C16.8928 3.63623 16.9016 4.05063 16.5325 4.59135C16.2312 4.93866 15.9238 5.27389 15.5997 5.59995C15.6969 5.82734 15.7941 6.05473 15.8942 6.28901C16.2334 7.19758 16.3005 8.01143 16.2872 8.97495C16.2852 9.13312 16.2833 9.29128 16.2813 9.45425C16.2176 11.5552 15.5253 12.8419 14.0739 14.3601C12.273 16.0304 10.4587 16.3177 8.08405 16.2601C5.97286 16.1522 4.61175 15.1224 3.19967 13.5999C1.68919 11.6508 1.59346 9.57716 1.79967 7.19995C2.14617 5.38605 3.39782 3.97634 4.83014 2.86636C6.94245 1.48383 10.0688 1.21995 12.3747 2.32885ZM14.1402 4.83532C14.0305 4.94547 13.9208 5.05561 13.8078 5.16909C13.6837 5.29322 13.5596 5.41735 13.4317 5.54524C13.2298 5.74866 13.2298 5.74866 13.0239 5.9562C12.8866 6.09381 12.7492 6.23143 12.6077 6.37322C12.1671 6.815 11.7271 7.25746 11.2872 7.69995C10.9894 7.99869 10.6916 8.29739 10.3938 8.59604C9.66191 9.33016 8.93058 10.0648 8.19967 10.7999C7.47307 10.4608 7.01057 10.0523 6.44967 9.47495C6.28983 9.3115 6.12998 9.14804 5.9653 8.97964C5.84464 8.85434 5.72398 8.72904 5.59967 8.59995C5.40167 8.66595 5.20367 8.73195 4.99967 8.79995C5.17828 9.78694 5.77287 10.2761 6.46217 10.9624C6.57857 11.0845 6.69498 11.2066 6.81491 11.3324C6.92873 11.4467 7.04255 11.5611 7.15983 11.6789C7.26329 11.7837 7.36676 11.8886 7.47335 11.9967C7.79006 12.2418 7.79006 12.2418 8.17767 12.1508C8.67238 11.974 8.90969 11.7624 9.27799 11.3897C9.40606 11.2616 9.53414 11.1335 9.66609 11.0015C9.80195 10.8625 9.93782 10.7236 10.0778 10.5804C10.2892 10.3678 10.2892 10.3678 10.5048 10.1508C10.9545 9.69774 11.4021 9.24264 11.8497 8.78745C12.1542 8.47989 12.4589 8.17247 12.7637 7.86518C13.5106 7.11167 14.2558 6.35646 14.9997 5.59995C14.8677 5.26995 14.7357 4.93995 14.5997 4.59995C14.366 4.57755 14.366 4.57755 14.1402 4.83532Z" fill="#03AB41"/>
</svg>
