<svg width="42" height="42" viewBox="0 0 42 42" fill="none" xmlns="http://www.w3.org/2000/svg">
<path d="M36.3891 28.8652C35.4786 27.2967 34.125 22.8588 34.125 17.0625C34.125 13.5815 32.7422 10.2431 30.2808 7.78172C27.8194 5.32031 24.481 3.9375 21.0001 3.9375C17.5191 3.9375 14.1807 5.32031 11.7193 7.78172C9.25786 10.2431 7.87505 13.5815 7.87505 17.0625C7.87505 22.8605 6.5199 27.2967 5.60935 28.8652C5.37682 29.2639 5.25355 29.7169 5.25197 30.1785C5.25038 30.6401 5.37054 31.0939 5.60032 31.4942C5.8301 31.8946 6.16139 32.2272 6.56076 32.4587C6.96013 32.6901 7.41346 32.8122 7.87505 32.8125H14.5704C14.8733 34.2942 15.6786 35.6259 16.8501 36.5823C18.0217 37.5387 19.4877 38.061 21.0001 38.061C22.5124 38.061 23.9784 37.5387 25.15 36.5823C26.3215 35.6259 27.1268 34.2942 27.4297 32.8125H34.125C34.5865 32.8119 35.0396 32.6896 35.4388 32.4581C35.8379 32.2265 36.169 31.8938 36.3985 31.4935C36.6281 31.0933 36.7481 30.6395 36.7465 30.1781C36.7448 29.7166 36.6216 29.2638 36.3891 28.8652ZM21.0001 35.4375C20.186 35.4372 19.392 35.1847 18.7275 34.7146C18.0629 34.2445 17.5603 33.58 17.289 32.8125H24.7111C24.4398 33.58 23.9372 34.2445 23.2726 34.7146C22.6081 35.1847 21.8141 35.4372 21.0001 35.4375ZM7.87505 30.1875C9.13833 28.0153 10.5001 22.9819 10.5001 17.0625C10.5001 14.2777 11.6063 11.607 13.5754 9.63788C15.5446 7.66875 18.2153 6.5625 21.0001 6.5625C23.7848 6.5625 26.4555 7.66875 28.4247 9.63788C30.3938 11.607 31.5 14.2777 31.5 17.0625C31.5 22.977 32.8585 28.0104 34.125 30.1875H7.87505Z" fill="white"/>
</svg>
