<svg width="53" height="53" viewBox="0 0 53 53" fill="none" xmlns="http://www.w3.org/2000/svg">
<g clip-path="url(#clip0_1362_1669)">
<path d="M11.3858 1.61428C12.0422 1.61056 12.6985 1.60685 13.3747 1.60303C14.0863 1.60541 14.7979 1.6078 15.531 1.61025C16.6223 1.60856 16.6223 1.60856 17.7356 1.60684C19.6715 1.60583 21.6072 1.61058 23.543 1.61715C24.7312 1.61945 25.9193 1.61716 27.1075 1.61313C29.383 1.60587 31.6583 1.60673 33.9338 1.61025C34.6454 1.60787 35.357 1.60548 36.0901 1.60303C36.7465 1.60674 37.4028 1.61045 38.079 1.61428C38.9486 1.61568 38.9486 1.61568 39.8356 1.61712C41.2213 1.76668 41.2213 1.76668 42.3991 2.94445C42.5023 4.63391 42.5353 6.26574 42.5141 7.95461C42.5124 8.44964 42.5108 8.94467 42.5091 9.45471C42.5025 11.0389 42.4877 12.6228 42.4727 14.207C42.4668 15.2797 42.4614 16.3524 42.4566 17.4251C42.4436 20.0576 42.4233 22.6899 42.3991 25.3222C37.5193 26.1572 32.7343 26.7053 27.7873 26.8681C27.2039 26.8908 26.6205 26.9136 26.0195 26.9371C24.6091 26.9916 23.1987 27.0422 21.788 27.0889C21.788 27.8662 21.788 28.6436 21.788 29.4445C24.12 29.6388 26.452 29.8331 28.8546 30.0333C28.2658 31.2111 27.6769 32.3889 27.088 33.5667C25.8711 33.8105 25.8711 33.8105 24.4012 33.9347C23.9146 33.9788 23.428 34.0228 22.9267 34.0681C22.5509 34.097 22.1751 34.1258 21.788 34.1556C21.788 34.9329 21.788 35.7102 21.788 36.5111C22.954 36.7055 24.12 36.8998 25.3213 37.1C25.5156 40.015 25.71 42.93 25.9102 45.9333C23.4156 45.9604 20.9215 45.9838 18.4269 45.998C17.578 46.004 16.7292 46.012 15.8804 46.0222C14.6613 46.0365 13.4423 46.0432 12.2231 46.0484C11.1222 46.0576 11.1222 46.0576 9.99899 46.0671C8.24354 45.9333 8.24354 45.9333 7.06576 44.7556C6.9162 43.0345 6.9162 43.0345 6.91336 40.8024C6.9113 40.3963 6.90923 39.9902 6.90711 39.5718C6.90191 38.2264 6.90536 36.8812 6.90933 35.5358C6.90854 34.6029 6.9074 33.67 6.90592 32.737C6.90418 30.7806 6.90671 28.8242 6.91221 26.8678C6.91892 24.3567 6.91506 21.8457 6.908 19.3346C6.90375 17.4079 6.9051 15.4811 6.90815 13.5543C6.90894 12.6283 6.90797 11.7023 6.90523 10.7762C6.90225 9.48327 6.90679 8.19054 6.91336 6.8976C6.9143 6.161 6.91523 5.4244 6.9162 4.66547C7.18587 1.56223 8.65122 1.6187 11.3858 1.61428ZM14.7213 11.1889C14.7213 11.9662 14.7213 12.7436 14.7213 13.5445C16.4304 14.399 17.9302 14.2098 19.8373 14.2116C20.225 14.2121 20.6126 14.2127 21.012 14.2133C21.8318 14.2137 22.6515 14.2126 23.4713 14.2101C24.7275 14.207 25.9836 14.2101 27.2398 14.2139C28.0357 14.2135 28.8316 14.2127 29.6276 14.2116C30.354 14.2109 31.0805 14.2102 31.829 14.2095C33.5259 14.2533 33.5259 14.2533 34.7435 13.5445C34.7435 12.7671 34.7435 11.9898 34.7435 11.1889C33.0344 10.3343 31.5346 10.5235 29.6276 10.5218C29.2399 10.5212 28.8522 10.5207 28.4528 10.5201C27.6331 10.5197 26.8133 10.5208 25.9936 10.5232C24.7374 10.5264 23.4813 10.5233 22.225 10.5195C21.4291 10.5199 20.6332 10.5206 19.8373 10.5218C19.1108 10.5225 18.3843 10.5231 17.6359 10.5238C15.939 10.4801 15.939 10.4801 14.7213 11.1889ZM21.788 20.0222C21.788 20.7996 21.788 21.5769 21.788 22.3778C23.1252 23.0464 23.8743 23.0426 25.3581 23.0449C25.8273 23.0456 26.2964 23.0464 26.7797 23.0472C27.5153 23.0438 27.5153 23.0438 28.2658 23.0403C28.7561 23.0426 29.2465 23.0448 29.7518 23.0472C30.2209 23.0464 30.69 23.0457 31.1734 23.0449C31.819 23.0439 31.819 23.0439 32.4777 23.0429C33.6221 23.0326 33.6221 23.0326 34.7435 22.3778C34.7435 21.6005 34.7435 20.8231 34.7435 20.0222C33.4063 19.3536 32.6572 19.3574 31.1734 19.3551C30.7043 19.3544 30.2351 19.3536 29.7518 19.3528C29.0162 19.3562 29.0162 19.3562 28.2658 19.3597C27.7754 19.3575 27.285 19.3552 26.7797 19.3528C26.3106 19.3536 25.8415 19.3543 25.3581 19.3551C24.7125 19.3561 24.7125 19.3561 24.0538 19.3571C22.9094 19.3674 22.9094 19.3674 21.788 20.0222ZM14.7213 20.0222C14.7213 20.7996 14.7213 21.5769 14.7213 22.3778C15.4986 22.3778 16.276 22.3778 17.0769 22.3778C17.0769 21.6005 17.0769 20.8231 17.0769 20.0222C16.2995 20.0222 15.5222 20.0222 14.7213 20.0222ZM14.7213 27.0889C14.7213 27.8662 14.7213 28.6436 14.7213 29.4445C15.4986 29.4445 16.276 29.4445 17.0769 29.4445C17.0769 28.6671 17.0769 27.8898 17.0769 27.0889C16.2995 27.0889 15.5222 27.0889 14.7213 27.0889ZM14.7213 34.1556C14.7213 34.9329 14.7213 35.7102 14.7213 36.5111C15.4986 36.5111 16.276 36.5111 17.0769 36.5111C17.0769 35.7338 17.0769 34.9565 17.0769 34.1556C16.2995 34.1556 15.5222 34.1556 14.7213 34.1556Z" fill="#FF000A"/>
<path d="M46.259 28.8233C49.326 30.6635 51.6406 33.181 52.999 36.5111C53.5124 40.8992 53.6409 44.9276 50.8965 48.5557C48.5874 51.0541 46.2986 52.8193 42.8867 53.2185C38.4005 53.3018 35.1816 53.1818 31.799 50.0555C28.3922 46.3797 27.9683 43.5122 28.0403 38.5676C28.4446 34.8792 30.0678 32.8587 32.7192 30.4014C36.7454 27.7172 41.6175 27.1058 46.259 28.8233ZM33.0504 36.0326C32.1301 38.3335 32.0346 40.5388 32.3879 42.9889C32.7766 43.5719 33.1653 44.1549 33.5657 44.7555C37.258 41.0632 40.9504 37.3709 44.7546 33.5666C40.5169 30.7415 36.2061 32.351 33.0504 36.0326ZM47.699 36.5111C44.0067 40.2034 40.3144 43.8958 36.5102 47.7C38.8933 49.2888 40.7781 49.2653 43.5768 48.8778C46.1576 47.5873 47.7972 46.2768 48.8768 43.5778C49.1879 40.7779 49.2903 38.8979 47.699 36.5111Z" fill="#FF000A"/>
</g>
<defs>
<clipPath id="clip0_1362_1669">
<rect width="53" height="53" fill="white"/>
</clipPath>
</defs>
</svg>
