<svg width="18" height="18" viewBox="0 0 18 18" fill="none" xmlns="http://www.w3.org/2000/svg">
<g opacity="0.5" clip-path="url(#clip0_1237_15028)">
<path d="M14.0888 6.77032C15.0923 7.32909 15.7635 8.14155 16.2013 9.2C16.2708 9.6375 16.2708 9.6375 16.3013 10.0625C16.3343 10.3059 16.3673 10.5493 16.4013 10.8C16.8691 11.1507 16.8691 11.1507 17.4013 11.4C18.1261 12.1998 18.0901 13.0517 18.0583 14.0813C17.9862 14.7369 17.8457 15.1096 17.4013 15.6C16.6683 16.1188 16.1696 16.2754 15.2755 16.2776C15.0546 16.2795 14.8336 16.2814 14.606 16.2834C14.3693 16.2822 14.1326 16.2809 13.8888 16.2797C13.644 16.2803 13.3991 16.2808 13.1469 16.2814C12.6298 16.2818 12.1127 16.2807 11.5956 16.2782C10.8042 16.275 10.013 16.2782 9.22158 16.282C8.71897 16.2816 8.21637 16.2809 7.71376 16.2797C7.47707 16.2809 7.24039 16.2821 6.99653 16.2834C6.7756 16.2815 6.55467 16.2796 6.32704 16.2776C6.13331 16.2772 5.93958 16.2767 5.73998 16.2762C4.91999 16.1602 4.38921 15.8074 3.83876 15.2C3.46882 14.2654 3.4219 13.3886 3.60126 12.4C3.99971 11.703 4.47943 11.1609 5.20126 10.8C5.28376 10.5855 5.36626 10.371 5.45126 10.15C5.78123 9.36165 6.2095 8.76242 7.00126 8.4C7.67703 8.32121 8.32459 8.33982 9.00126 8.4C9.0536 8.27935 9.10593 8.15869 9.15986 8.03438C10.1107 6.32347 12.4024 6.18116 14.0888 6.77032Z" fill="#424242"/>
<path d="M6.39829 4.19997C7.02345 4.53439 7.47685 4.9571 7.79829 5.59997C7.81219 5.90802 7.8152 6.21664 7.81079 6.52497C7.80899 6.68843 7.80718 6.85188 7.80532 7.02028C7.803 7.14558 7.80068 7.27088 7.79829 7.39997C7.55904 7.47835 7.31979 7.55672 7.07329 7.63747C6.4579 7.86214 6.03804 8.10263 5.56079 8.54997C4.99829 8.99997 4.99829 8.99997 4.48579 9.03747C3.78651 8.6968 3.33931 8.29175 2.99829 7.59997C2.82866 6.76266 2.79231 5.97635 3.21079 5.21169C4.1145 4.0955 5.02964 4.00715 6.39829 4.19997Z" fill="#424242"/>
<path d="M2.65078 8.86251C2.82403 8.93057 2.82403 8.93057 3.00078 9.00001C3.13828 9.35001 3.13828 9.35001 3.20078 9.80001C2.98828 10.25 2.98828 10.25 2.60078 10.6C1.96328 10.65 1.96328 10.65 1.40078 10.6C1.35078 10.0375 1.35078 10.0375 1.40078 9.40001C1.82566 8.9296 2.01393 8.77406 2.65078 8.86251Z" fill="#414141"/>
<path d="M8.83906 2.54999C9.02469 2.56649 9.21031 2.58299 9.40156 2.59999C9.45156 3.16249 9.45156 3.16249 9.40156 3.79999C9.05156 4.18749 9.05156 4.18749 8.60156 4.39999C8.15156 4.33749 8.15156 4.33749 7.80156 4.19999C7.66406 3.84999 7.66406 3.84999 7.60156 3.39999C7.92482 2.71544 8.07347 2.61003 8.83906 2.54999Z" fill="#454545"/>
<path d="M1.40078 2.6C1.96328 2.55 1.96328 2.55 2.60078 2.6C2.98828 2.95 2.98828 2.95 3.20078 3.4C3.13828 3.85 3.13828 3.85 3.00078 4.2C2.65078 4.3375 2.65078 4.3375 2.20078 4.4C1.75078 4.1875 1.75078 4.1875 1.40078 3.8C1.35078 3.1625 1.35078 3.1625 1.40078 2.6Z" fill="#454545"/>
<path d="M6.00078 1.19999C6.00078 1.79399 6.00078 2.38799 6.00078 2.99999C5.20078 3.19999 5.20078 3.19999 4.80078 2.99999C4.80078 2.40599 4.80078 1.81199 4.80078 1.19999C5.20078 0.999988 5.20078 0.999988 6.00078 1.19999Z" fill="#404040"/>
<path d="M0 6C0.594 6 1.188 6 1.8 6C2 6.8 2 6.8 1.8 7.2C1.206 7.2 0.612 7.2 0 7.2C0 6.804 0 6.408 0 6Z" fill="#444444"/>
</g>
<defs>
<clipPath id="clip0_1237_15028">
<rect width="18" height="18" fill="white"/>
</clipPath>
</defs>
</svg>
