<svg width="18" height="18" viewBox="0 0 18 18" fill="none" xmlns="http://www.w3.org/2000/svg">
<g opacity="0.5">
<path d="M11.6 4C12.2 4.75 12.2 4.75 12.2 5.2C12.464 5.134 12.728 5.068 13 5C13.099 5.396 13.099 5.396 13.2 5.8C13.068 5.8 12.936 5.8 12.8 5.8C12.8 5.932 12.8 6.064 12.8 6.2C12.668 6.266 12.536 6.332 12.4 6.4C12.2185 6.82265 12.2185 6.82265 12.075 7.3125C12.0229 7.47776 11.9708 7.64302 11.9172 7.81328C11.8785 7.9409 11.8398 8.06852 11.8 8.2C11.932 8.2 12.064 8.2 12.2 8.2C12.266 8.068 12.332 7.936 12.4 7.8C12.895 7.998 12.895 7.998 13.4 8.2C13.4 8.332 13.4 8.464 13.4 8.6C13.697 8.699 13.697 8.699 14 8.8C14.1403 9.06307 14.2731 9.33024 14.4 9.6C14.596 9.80388 14.7956 10.0045 15 10.2C15.099 10.398 15.099 10.398 15.2 10.6C15.7664 10.6669 15.7664 10.6669 16.4 10.6C16.8754 10.225 16.8754 10.225 17.2 9.8C16.7274 9.29482 16.4671 9.02236 15.8 8.8C15.8 8.668 15.8 8.536 15.8 8.4C16.35 8.3375 16.35 8.3375 17 8.4C17.6456 8.95836 17.8433 9.43922 17.95 10.2625C17.9665 10.5059 17.983 10.7492 18 11C16.9114 11.5823 16.9114 11.5823 16.25 11.6875C16.1015 11.7246 15.953 11.7618 15.8 11.8C15.6601 12.0633 15.5265 12.33 15.4 12.6C14.975 12.75 14.975 12.75 14.6 12.8C14.501 12.404 14.501 12.404 14.4 12C14.3203 12.1011 14.2407 12.2021 14.1586 12.3063C14.0526 12.4362 13.9467 12.5661 13.8375 12.7C13.7331 12.8299 13.6287 12.9599 13.5211 13.0938C13.2 13.4 13.2 13.4 12.6 13.4C12.534 13.598 12.468 13.796 12.4 14C12.202 13.901 12.202 13.901 12 13.8C11.9185 13.3357 11.8511 12.8686 11.8 12.4C11.6474 12.3588 11.4948 12.3175 11.3375 12.275C10.635 11.9156 10.521 11.5023 10.2 10.8C9.9415 10.8605 9.9415 10.8605 9.67778 10.9222C9.03034 11.0736 8.38288 11.2249 7.7354 11.3762C7.45668 11.4413 7.17797 11.5065 6.89927 11.5717C5.99974 11.7821 5.09994 11.9913 4.2 12.2C4.0311 12.2398 3.8622 12.2795 3.68818 12.3205C2.46162 12.6034 1.2501 12.7916 0 13C0 11.284 0 9.568 0 7.8C0.590133 7.67702 1.18027 7.55405 1.78828 7.42734C2.36292 7.30655 2.93744 7.18526 3.51196 7.06392C3.9097 6.98019 4.30756 6.89698 4.70552 6.81431C5.27924 6.69503 5.85253 6.57386 6.42578 6.45234C6.6023 6.41607 6.77881 6.37979 6.96067 6.34242C8.8835 5.97104 8.8835 5.97104 10.3375 4.775C10.8 4.2 10.8 4.2 11.2625 4.025C11.4296 4.01263 11.4296 4.01263 11.6 4Z" fill="#A0A0A0"/>
</g>
</svg>
