<svg width="57" height="57" viewBox="0 0 57 57" fill="none" xmlns="http://www.w3.org/2000/svg">
<path d="M46.3125 7.125H10.6875C9.74267 7.125 8.83653 7.50033 8.16843 8.16843C7.50033 8.83653 7.125 9.74267 7.125 10.6875V46.3125C7.125 47.2573 7.50033 48.1635 8.16843 48.8316C8.83653 49.4997 9.74267 49.875 10.6875 49.875H46.3125C47.2573 49.875 48.1635 49.4997 48.8316 48.8316C49.4997 48.1635 49.875 47.2573 49.875 46.3125V10.6875C49.875 9.74267 49.4997 8.83653 48.8316 8.16843C48.1635 7.50033 47.2573 7.125 46.3125 7.125ZM40.4477 37.9273C40.6132 38.0928 40.7445 38.2892 40.8341 38.5055C40.9236 38.7217 40.9697 38.9535 40.9697 39.1875C40.9697 39.4215 40.9236 39.6533 40.8341 39.8695C40.7445 40.0858 40.6132 40.2822 40.4477 40.4477C40.2822 40.6132 40.0858 40.7445 39.8695 40.8341C39.6533 40.9236 39.4215 40.9697 39.1875 40.9697C38.9535 40.9697 38.7217 40.9236 38.5055 40.8341C38.2892 40.7445 38.0928 40.6132 37.9273 40.4477L28.5 31.0182L19.0727 40.4477C18.7385 40.782 18.2852 40.9697 17.8125 40.9697C17.3398 40.9697 16.8865 40.782 16.5523 40.4477C16.218 40.1135 16.0303 39.6602 16.0303 39.1875C16.0303 38.7148 16.218 38.2615 16.5523 37.9273L25.9818 28.5L16.5523 19.0727C16.218 18.7385 16.0303 18.2852 16.0303 17.8125C16.0303 17.3398 16.218 16.8865 16.5523 16.5523C16.8865 16.218 17.3398 16.0303 17.8125 16.0303C18.2852 16.0303 18.7385 16.218 19.0727 16.5523L28.5 25.9818L37.9273 16.5523C38.2615 16.218 38.7148 16.0303 39.1875 16.0303C39.6602 16.0303 40.1135 16.218 40.4477 16.5523C40.782 16.8865 40.9697 17.3398 40.9697 17.8125C40.9697 18.2852 40.782 18.7385 40.4477 19.0727L31.0182 28.5L40.4477 37.9273Z" fill="#343330"/>
</svg>
