<svg width="42" height="42" viewBox="0 0 42 42" fill="none" xmlns="http://www.w3.org/2000/svg">
<path d="M13.125 6.5625C11.8271 6.5625 10.5583 6.94739 9.47907 7.66848C8.39988 8.38958 7.55874 9.4145 7.06204 10.6136C6.56534 11.8128 6.43538 13.1323 6.6886 14.4053C6.94182 15.6783 7.56683 16.8476 8.48461 17.7654C9.4024 18.6832 10.5717 19.3082 11.8447 19.5614C13.1177 19.8146 14.4372 19.6847 15.6364 19.188C16.8355 18.6913 17.8604 17.8501 18.5815 16.7709C19.3026 15.6917 19.6875 14.4229 19.6875 13.125C19.6875 11.3845 18.9961 9.71532 17.7654 8.48461C16.5347 7.25391 14.8655 6.5625 13.125 6.5625ZM13.125 17.0625C12.3462 17.0625 11.585 16.8316 10.9374 16.3989C10.2899 15.9663 9.78525 15.3513 9.48723 14.6318C9.18921 13.9123 9.11123 13.1206 9.26316 12.3568C9.41509 11.593 9.7901 10.8914 10.3408 10.3408C10.8914 9.7901 11.593 9.41509 12.3568 9.26316C13.1206 9.11123 13.9123 9.18921 14.6318 9.48723C15.3513 9.78525 15.9663 10.2899 16.3989 10.9374C16.8316 11.585 17.0625 12.3462 17.0625 13.125C17.0625 14.1693 16.6477 15.1708 15.9092 15.9092C15.1708 16.6477 14.1693 17.0625 13.125 17.0625ZM28.875 19.6875C30.1729 19.6875 31.4417 19.3026 32.5209 18.5815C33.6001 17.8604 34.4413 16.8355 34.938 15.6364C35.4347 14.4372 35.5646 13.1177 35.3114 11.8447C35.0582 10.5717 34.4332 9.4024 33.5154 8.48461C32.5976 7.56683 31.4283 6.94182 30.1553 6.6886C28.8823 6.43538 27.5628 6.56534 26.3636 7.06204C25.1645 7.55874 24.1396 8.39988 23.4185 9.47907C22.6974 10.5583 22.3125 11.8271 22.3125 13.125C22.3125 14.8655 23.0039 16.5347 24.2346 17.7654C25.4653 18.9961 27.1345 19.6875 28.875 19.6875ZM28.875 9.1875C29.6538 9.1875 30.415 9.41843 31.0626 9.85109C31.7101 10.2837 32.2148 10.8987 32.5128 11.6182C32.8108 12.3377 32.8888 13.1294 32.7368 13.8932C32.5849 14.657 32.2099 15.3586 31.6592 15.9092C31.1086 16.4599 30.407 16.8349 29.6432 16.9868C28.8794 17.1388 28.0877 17.0608 27.3682 16.7628C26.6487 16.4648 26.0337 15.9601 25.6011 15.3126C25.1684 14.665 24.9375 13.9038 24.9375 13.125C24.9375 12.0807 25.3523 11.0792 26.0908 10.3408C26.8292 9.60235 27.8307 9.1875 28.875 9.1875ZM13.125 22.3125C11.8271 22.3125 10.5583 22.6974 9.47907 23.4185C8.39988 24.1396 7.55874 25.1645 7.06204 26.3636C6.56534 27.5628 6.43538 28.8823 6.6886 30.1553C6.94182 31.4283 7.56683 32.5976 8.48461 33.5154C9.4024 34.4332 10.5717 35.0582 11.8447 35.3114C13.1177 35.5646 14.4372 35.4347 15.6364 34.938C16.8355 34.4413 17.8604 33.6001 18.5815 32.5209C19.3026 31.4417 19.6875 30.1729 19.6875 28.875C19.6875 27.1345 18.9961 25.4653 17.7654 24.2346C16.5347 23.0039 14.8655 22.3125 13.125 22.3125ZM13.125 32.8125C12.3462 32.8125 11.585 32.5816 10.9374 32.1489C10.2899 31.7163 9.78525 31.1013 9.48723 30.3818C9.18921 29.6623 9.11123 28.8706 9.26316 28.1068C9.41509 27.343 9.7901 26.6414 10.3408 26.0908C10.8914 25.5401 11.593 25.1651 12.3568 25.0132C13.1206 24.8612 13.9123 24.9392 14.6318 25.2372C15.3513 25.5352 15.9663 26.0399 16.3989 26.6874C16.8316 27.335 17.0625 28.0962 17.0625 28.875C17.0625 29.9193 16.6477 30.9208 15.9092 31.6592C15.1708 32.3977 14.1693 32.8125 13.125 32.8125ZM28.875 22.3125C27.5771 22.3125 26.3083 22.6974 25.2291 23.4185C24.1499 24.1396 23.3087 25.1645 22.812 26.3636C22.3153 27.5628 22.1854 28.8823 22.4386 30.1553C22.6918 31.4283 23.3168 32.5976 24.2346 33.5154C25.1524 34.4332 26.3217 35.0582 27.5947 35.3114C28.8677 35.5646 30.1872 35.4347 31.3864 34.938C32.5855 34.4413 33.6104 33.6001 34.3315 32.5209C35.0526 31.4417 35.4375 30.1729 35.4375 28.875C35.4375 27.1345 34.7461 25.4653 33.5154 24.2346C32.2847 23.0039 30.6155 22.3125 28.875 22.3125ZM28.875 32.8125C28.0962 32.8125 27.335 32.5816 26.6874 32.1489C26.0399 31.7163 25.5352 31.1013 25.2372 30.3818C24.9392 29.6623 24.8612 28.8706 25.0132 28.1068C25.1651 27.343 25.5401 26.6414 26.0908 26.0908C26.6414 25.5401 27.343 25.1651 28.1068 25.0132C28.8706 24.8612 29.6623 24.9392 30.3818 25.2372C31.1013 25.5352 31.7163 26.0399 32.1489 26.6874C32.5816 27.335 32.8125 28.0962 32.8125 28.875C32.8125 29.9193 32.3977 30.9208 31.6592 31.6592C30.9208 32.3977 29.9193 32.8125 28.875 32.8125Z" fill="white"/>
</svg>
