<svg width="18" height="18" viewBox="0 0 18 18" fill="none" xmlns="http://www.w3.org/2000/svg">
<g opacity="0.5">
<path d="M2.99777 2.94821C3.14153 2.94751 3.2853 2.94681 3.43343 2.94609C3.90984 2.94433 4.3862 2.9455 4.86261 2.94685C5.1929 2.94658 5.52319 2.94619 5.85348 2.94569C6.54618 2.9451 7.23886 2.94596 7.93155 2.94782C8.8207 2.9501 9.7098 2.94879 10.5989 2.94639C11.2811 2.94495 11.9633 2.94541 12.6454 2.94645C12.9733 2.94671 13.3012 2.94638 13.6291 2.94545C14.0869 2.94444 14.5447 2.94598 15.0025 2.94821C15.3937 2.94869 15.3937 2.94869 15.7928 2.94918C16.4001 2.99997 16.4001 2.99997 16.8001 3.39997C16.8509 3.87058 16.8509 3.87058 16.8519 4.46716C16.8531 4.69007 16.8544 4.91298 16.8557 5.14265C16.8549 5.38431 16.8541 5.62598 16.8532 5.87497C16.8536 6.12205 16.854 6.36913 16.8544 6.6237C16.8547 7.28115 16.8531 7.93857 16.8509 8.59602C16.8501 8.99956 16.8509 9.40307 16.8523 9.80661C16.8547 10.5794 16.8544 11.3522 16.8532 12.125C16.854 12.3666 16.8549 12.6083 16.8557 12.8573C16.8538 13.1917 16.8538 13.1917 16.8519 13.5328C16.8515 13.7297 16.8512 13.9265 16.8509 14.1294C16.8001 14.6 16.8001 14.6 16.4001 15C15.7928 15.0508 15.7928 15.0508 15.0025 15.0517C14.8587 15.0524 14.7149 15.0531 14.5668 15.0539C14.0904 15.0556 13.614 15.0544 13.1376 15.0531C12.8073 15.0534 12.477 15.0538 12.1467 15.0543C11.454 15.0548 10.7614 15.054 10.0687 15.0521C9.17952 15.0498 8.29042 15.0512 7.40128 15.0535C6.71911 15.055 6.03695 15.0545 5.35478 15.0535C5.02688 15.0532 4.69898 15.0536 4.37108 15.0545C3.91328 15.0555 3.45556 15.054 2.99777 15.0517C2.60653 15.0513 2.60653 15.0513 2.20739 15.0508C1.60011 15 1.60011 15 1.20011 14.6C1.14932 14.1294 1.14932 14.1294 1.14835 13.5328C1.14709 13.3099 1.14583 13.087 1.14453 12.8573C1.14534 12.6156 1.14615 12.374 1.14698 12.125C1.1466 11.8779 1.14622 11.6308 1.14583 11.3762C1.14548 10.7188 1.1471 10.0614 1.14933 9.40393C1.15011 9.00038 1.14933 8.59687 1.14796 8.19333C1.1455 7.42053 1.14579 6.64778 1.14698 5.87497C1.14618 5.6333 1.14537 5.39164 1.14453 5.14265C1.14579 4.91974 1.14705 4.69683 1.14835 4.46716C1.14867 4.27029 1.14899 4.07342 1.14932 3.87058C1.26827 2.76847 2.08924 2.94932 2.99777 2.94821ZM4.20011 6.59997C4.06588 7.2873 3.93288 7.97486 3.80011 8.66247C3.76195 8.85776 3.7238 9.05306 3.68448 9.25427C3.64839 9.44183 3.6123 9.62939 3.57511 9.82263C3.54159 9.99544 3.50808 10.1683 3.47355 10.3463C3.38413 10.8221 3.38413 10.8221 3.40011 11.4C3.79611 11.4 4.19211 11.4 4.60011 11.4C4.66611 10.74 4.73211 10.08 4.80011 9.39997C5.52611 9.39997 6.25211 9.39997 7.00011 9.39997C6.86811 10.06 6.73611 10.72 6.60011 11.4C6.99611 11.4 7.39211 11.4 7.80011 11.4C8.25866 9.8278 8.41505 8.22217 8.60011 6.59997C8.20411 6.59997 7.80811 6.59997 7.40011 6.59997C7.33411 7.19397 7.26811 7.78797 7.20011 8.39997C6.54011 8.39997 5.88011 8.39997 5.20011 8.39997C5.26611 7.80597 5.33211 7.21197 5.40011 6.59997C5.00411 6.59997 4.60811 6.59997 4.20011 6.59997ZM10.2001 6.59997C10.0988 7.21227 9.99931 7.82484 9.90011 8.43747C9.87149 8.61034 9.84287 8.7832 9.81339 8.9613C9.68148 9.78102 9.55869 10.5664 9.60011 11.4C11.8706 11.5226 11.8706 11.5226 13.9626 10.775C14.5851 9.79215 14.7114 8.5349 14.6001 7.39997C14.3012 6.92793 14.106 6.82778 13.5689 6.68669C12.8848 6.58239 12.2294 6.58101 11.5376 6.58747C11.2868 6.58928 11.0359 6.59108 10.7775 6.59294C10.5869 6.59526 10.3964 6.59758 10.2001 6.59997Z" fill="#A0A0A0"/>
<path d="M11.4 7.59998C11.6958 7.5946 11.9917 7.59071 12.2875 7.58748C12.4522 7.58516 12.617 7.58283 12.7867 7.58044C13.2 7.59998 13.2 7.59998 13.4 7.79998C13.3924 8.16299 13.369 8.52575 13.3375 8.88748C13.3139 9.18409 13.3139 9.18409 13.2898 9.48669C13.2 9.99998 13.2 9.99998 12.8 10.4C12.3672 10.439 12.3672 10.439 11.875 10.425C11.7115 10.4214 11.5481 10.4178 11.3797 10.414C11.2544 10.4094 11.1291 10.4048 11 10.4C11.0283 10.0457 11.0576 9.69159 11.0875 9.33748C11.1037 9.14025 11.12 8.94302 11.1367 8.73982C11.2 8.19998 11.2 8.19998 11.4 7.59998Z" fill="#424242"/>
</g>
</svg>
