<svg width="42" height="42" viewBox="0 0 42 42" fill="none" xmlns="http://www.w3.org/2000/svg">
<path d="M19.6875 21V7.875C19.6875 7.5269 19.8258 7.19306 20.0719 6.94692C20.3181 6.70078 20.6519 6.5625 21 6.5625C21.3481 6.5625 21.6819 6.70078 21.9281 6.94692C22.1742 7.19306 22.3125 7.5269 22.3125 7.875V21C22.3125 21.3481 22.1742 21.6819 21.9281 21.9281C21.6819 22.1742 21.3481 22.3125 21 22.3125C20.6519 22.3125 20.3181 22.1742 20.0719 21.9281C19.8258 21.6819 19.6875 21.3481 19.6875 21ZM29.592 8.08828C29.3004 7.90404 28.9482 7.84193 28.6112 7.91537C28.2743 7.9888 27.9798 8.1919 27.7914 8.48073C27.603 8.76957 27.5359 9.12094 27.6045 9.45889C27.6731 9.79684 27.8719 10.0942 28.158 10.2867C31.9495 12.7591 34.125 16.6638 34.125 21C34.125 24.481 32.7422 27.8194 30.2808 30.2808C27.8194 32.7422 24.481 34.125 21 34.125C17.519 34.125 14.1806 32.7422 11.7192 30.2808C9.25781 27.8194 7.875 24.481 7.875 21C7.875 16.6638 10.0505 12.7591 13.842 10.2867C14.1281 10.0942 14.3269 9.79684 14.3955 9.45889C14.4641 9.12094 14.397 8.76957 14.2086 8.48073C14.0202 8.1919 13.7257 7.9888 13.3888 7.91537C13.0518 7.84193 12.6995 7.90404 12.408 8.08828C7.85859 11.0545 5.25 15.7598 5.25 21C5.25 25.1772 6.90937 29.1832 9.86307 32.1369C12.8168 35.0906 16.8228 36.75 21 36.75C25.1772 36.75 29.1832 35.0906 32.1369 32.1369C35.0906 29.1832 36.75 25.1772 36.75 21C36.75 15.7598 34.1414 11.0545 29.592 8.08828Z" fill="white"/>
</svg>
