<svg width="42" height="42" viewBox="0 0 42 42" fill="none" xmlns="http://www.w3.org/2000/svg">
<path d="M34.1503 17.3905C34.1503 17.7587 34.0041 18.1118 33.7437 18.3721C33.4834 18.6325 33.1303 18.7787 32.7621 18.7787H25.821C25.4528 18.7787 25.0997 18.6325 24.8393 18.3721C24.579 18.1118 24.4327 17.7587 24.4327 17.3905C24.4327 17.0223 24.579 16.6692 24.8393 16.4089C25.0997 16.1485 25.4528 16.0023 25.821 16.0023H32.7621C33.1303 16.0023 33.4834 16.1485 33.7437 16.4089C34.0041 16.6692 34.1503 17.0223 34.1503 17.3905ZM32.7621 21.5552H25.821C25.4528 21.5552 25.0997 21.7014 24.8393 21.9618C24.579 22.2221 24.4327 22.5752 24.4327 22.9434C24.4327 23.3116 24.579 23.6647 24.8393 23.925C25.0997 24.1854 25.4528 24.3316 25.821 24.3316H32.7621C33.1303 24.3316 33.4834 24.1854 33.7437 23.925C34.0041 23.6647 34.1503 23.3116 34.1503 22.9434C34.1503 22.5752 34.0041 22.2221 33.7437 21.9618C33.4834 21.7014 33.1303 21.5552 32.7621 21.5552ZM39.7032 7.67293V32.661C39.7032 33.3973 39.4107 34.1035 38.89 34.6242C38.3693 35.1449 37.6631 35.4374 36.9268 35.4374H6.38582C5.64946 35.4374 4.94326 35.1449 4.42258 34.6242C3.90189 34.1035 3.60938 33.3973 3.60938 32.661V7.67293C3.60938 6.93657 3.90189 6.23037 4.42258 5.70969C4.94326 5.189 5.64946 4.89648 6.38582 4.89648H36.9268C37.6631 4.89648 38.3693 5.189 38.89 5.70969C39.4107 6.23037 39.7032 6.93657 39.7032 7.67293ZM36.9268 32.661V7.67293H6.38582V32.661H36.9268ZM22.9994 26.761C23.0914 27.1177 23.038 27.4963 22.8509 27.8136C22.6638 28.1309 22.3583 28.3609 22.0016 28.4529C21.6449 28.545 21.2663 28.4916 20.949 28.3044C20.6317 28.1173 20.4018 27.8118 20.3097 27.4551C19.8533 25.6747 18.0434 24.3316 16.1017 24.3316C14.1599 24.3316 12.3517 25.6747 11.8936 27.4551C11.8016 27.8118 11.5716 28.1173 11.2543 28.3044C10.937 28.4916 10.5584 28.545 10.2017 28.4529C9.84503 28.3609 9.53953 28.1309 9.35241 27.8136C9.16529 27.4963 9.11188 27.1177 9.20392 26.761C9.6544 25.0843 10.7193 23.6385 12.1869 22.7109C11.407 21.9356 10.8748 20.9462 10.6579 19.8682C10.441 18.7901 10.549 17.6719 10.9683 16.6554C11.3876 15.6388 12.0993 14.7696 13.0132 14.1579C13.9271 13.5463 15.002 13.2198 16.1017 13.2198C17.2013 13.2198 18.2762 13.5463 19.1901 14.1579C20.104 14.7696 20.8157 15.6388 21.235 16.6554C21.6543 17.6719 21.7624 18.7901 21.5454 19.8682C21.3285 20.9462 20.7963 21.9356 20.0165 22.7109C21.4857 23.6371 22.5515 25.0834 23.0011 26.761H22.9994ZM16.1034 21.5552C16.6525 21.5552 17.1893 21.3923 17.6459 21.0873C18.1025 20.7822 18.4584 20.3486 18.6685 19.8412C18.8786 19.3339 18.9336 18.7756 18.8265 18.2371C18.7194 17.6985 18.4549 17.2038 18.0666 16.8155C17.6783 16.4272 17.1836 16.1628 16.6451 16.0556C16.1065 15.9485 15.5482 16.0035 15.0409 16.2136C14.5336 16.4238 14.0999 16.7796 13.7949 17.2362C13.4898 17.6928 13.3269 18.2296 13.3269 18.7787C13.3269 19.5151 13.6195 20.2213 14.1402 20.742C14.6608 21.2627 15.367 21.5552 16.1034 21.5552Z" fill="white"/>
</svg>
