<svg width="18" height="18" viewBox="0 0 18 18" fill="none" xmlns="http://www.w3.org/2000/svg">
<path d="M7.80056 1.20001C8.59256 1.20001 9.38456 1.20001 10.2006 1.20001C10.2006 1.59601 10.2006 1.99201 10.2006 2.40001C10.4274 2.44126 10.6543 2.48251 10.8881 2.52501C12.5099 2.93549 13.8854 4.01196 14.8006 5.40001C15.8382 7.14226 15.8909 9.23733 15.4756 11.1867C14.835 13.0196 13.5176 14.3437 11.8162 15.225C10.2204 15.8969 7.94239 15.8825 6.31306 15.3C4.58947 14.473 3.3403 13.1569 2.60056 11.4C2.04295 9.75238 2.17634 7.40508 2.92321 5.84845C3.84163 4.36346 4.97234 3.26269 6.60056 2.60001C7.31306 2.43751 7.31306 2.43751 7.80056 2.40001C7.80056 2.00401 7.80056 1.60801 7.80056 1.20001ZM4.91306 5.47501C3.73748 7.0369 3.57418 8.46176 3.80056 10.4C4.31448 12.1062 5.33507 13.0701 6.81306 13.975C8.10632 14.4585 9.67803 14.4176 10.9842 14.0242C12.3952 13.3774 13.5505 12.3243 14.1052 10.8406C14.4693 9.15776 14.3838 7.52197 13.5107 6.02423C12.7426 4.97369 11.6977 4.08059 10.4006 3.80001C8.2338 3.5622 6.43688 3.82451 4.91306 5.47501Z" fill="#F8B335"/>
<path d="M9.59878 4.80001C9.60858 5.01194 9.61838 5.22386 9.62847 5.4422C9.64348 5.71981 9.65859 5.99742 9.67378 6.27501C9.67997 6.41475 9.68616 6.55448 9.69253 6.69845C9.71778 7.54039 9.71778 7.54039 10.1988 8.20001C10.2519 8.57501 10.2519 8.57501 10.2488 9.00001C10.2498 9.14026 10.2508 9.28051 10.2519 9.42501C10.1988 9.80001 10.1988 9.80001 9.79878 10.2C9.71926 10.5977 9.65123 10.9979 9.59878 11.4C8.84878 11.625 8.84878 11.625 8.39878 11.4C8.2578 10.9356 8.12436 10.4688 7.99878 10C7.93278 9.93401 7.86678 9.86801 7.79878 9.80001C7.74416 8.65279 7.74416 8.65279 7.79878 8.20001C7.93078 8.06801 8.06278 7.93601 8.19878 7.80001C8.26345 7.15261 8.29167 6.51419 8.31207 5.86447C8.32793 5.50883 8.362 5.1541 8.39878 4.80001C8.89697 4.55092 9.08095 4.64466 9.59878 4.80001Z" fill="#F8B335"/>
<path d="M13.1981 2.40002C13.7481 2.33752 13.7481 2.33752 14.3981 2.40002C14.8856 2.85002 14.8856 2.85002 15.1981 3.40002C15.1481 3.86252 15.1481 3.86252 14.9981 4.20002C14.6606 4.35002 14.6606 4.35002 14.1981 4.40002C13.6375 4.04801 13.2782 3.79471 13.0231 3.17502C12.9981 2.80002 12.9981 2.80002 13.1981 2.40002Z" fill="#F8B335"/>
</svg>
