<svg width="53" height="53" viewBox="0 0 53 53" fill="none" xmlns="http://www.w3.org/2000/svg">
<path d="M22.9668 3.53345C25.2988 3.53345 27.6308 3.53345 30.0335 3.53345C30.0335 4.69945 30.0335 5.86545 30.0335 7.06678C30.7015 7.18824 31.3695 7.3097 32.0578 7.43484C36.8332 8.64347 40.8832 11.8131 43.5779 15.9001C46.633 21.0301 46.7883 27.1989 45.5654 32.9388C43.6795 38.3356 39.8003 42.2343 34.7906 44.8293C30.0918 46.8077 23.3844 46.7651 18.5869 45.0501C13.5119 42.6151 9.8338 38.7398 7.65568 33.5668C6.01384 28.7154 6.40661 21.8039 8.60572 17.2205C11.3099 12.8481 14.6393 9.6069 19.4335 7.65567C21.5314 7.1772 21.5314 7.1772 22.9668 7.06678C22.9668 5.90078 22.9668 4.73478 22.9668 3.53345ZM14.4647 16.1209C11.0033 20.7198 10.5224 24.9153 11.189 30.6223C12.7022 35.6463 15.7073 38.4843 20.0592 41.1487C23.8671 42.5724 28.4949 42.452 32.3407 41.2936C36.4953 39.3892 39.8973 36.2883 41.5306 31.9197C42.6024 26.9646 42.3507 22.1481 39.78 17.7381C37.5185 14.6448 34.4416 12.0152 30.6223 11.189C24.2424 10.4888 18.9515 11.2611 14.4647 16.1209Z" fill="#F8B335"/>
<path d="M28.2663 14.1333C28.2952 14.7573 28.324 15.3813 28.3538 16.0242C28.3979 16.8416 28.4424 17.659 28.4872 18.4764C28.5054 18.8878 28.5236 19.2993 28.5424 19.7232C28.6167 22.2022 28.6167 22.2022 30.033 24.1444C30.1894 25.2486 30.1894 25.2486 30.1802 26.5C30.1833 26.913 30.1863 27.3259 30.1894 27.7514C30.033 28.8555 30.033 28.8555 28.8552 30.0333C28.6211 31.2042 28.4208 32.3827 28.2663 33.5667C26.058 34.2292 26.058 34.2292 24.733 33.5667C24.3179 32.1992 23.925 30.8248 23.5552 29.4444C23.3609 29.2501 23.1666 29.0558 22.9663 28.8555C22.8055 25.4776 22.8055 25.4776 22.9663 24.1444C23.355 23.7558 23.7437 23.3671 24.1441 22.9667C24.3345 21.0604 24.4176 19.1806 24.4777 17.2676C24.5244 16.2204 24.6247 15.1759 24.733 14.1333C26.1999 13.3999 26.7416 13.6759 28.2663 14.1333Z" fill="#F8B335"/>
<path d="M38.8671 7.06673C40.4865 6.8827 40.4865 6.8827 42.4004 7.06673C43.8358 8.39173 43.8358 8.39173 44.756 10.0112C44.6087 11.373 44.6087 11.373 44.1671 12.3667C43.1733 12.8084 43.1733 12.8084 41.8115 12.9556C40.1608 11.9191 39.1031 11.1733 38.3518 9.34868C38.2782 8.24451 38.2782 8.24451 38.8671 7.06673Z" fill="#F8B335"/>
</svg>
