<svg width="18" height="18" viewBox="0 0 18 18" fill="none" xmlns="http://www.w3.org/2000/svg">
<path d="M12.6004 3.5999C13.1309 3.94443 13.1309 3.94443 13.5879 4.4124C13.7423 4.56322 13.8968 4.71404 14.0559 4.86943C14.511 5.57016 14.4831 5.97463 14.4004 6.7999C14.0554 7.32602 14.0554 7.32602 13.5746 7.81162C13.4005 7.98758 13.2263 8.16353 13.0469 8.34482C12.8624 8.52387 12.6779 8.70292 12.4879 8.8874C12.3088 9.07187 12.1298 9.25633 11.9453 9.44639C11.7694 9.62054 11.5934 9.79469 11.4121 9.97412C11.2519 10.1328 11.0916 10.2915 10.9265 10.4549C10.2519 10.8973 9.7911 10.864 9.00039 10.7999C9.00864 10.9855 9.01689 11.1712 9.02539 11.3624C9.00039 11.9999 9.00039 11.9999 8.60039 12.5999C7.68084 12.4278 7.17836 11.8809 6.53789 11.2374C6.42536 11.1305 6.31282 11.0237 6.19688 10.9136C5.87773 10.596 5.87773 10.596 5.40039 9.9999C5.44556 9.57515 5.44556 9.57515 5.60039 9.1999C6.14215 8.92902 6.60226 8.9869 7.20039 8.9999C7.18336 8.78977 7.16633 8.57963 7.14878 8.36313C7.21038 7.45225 7.39424 7.2264 8.02617 6.58818C8.20032 6.41223 8.37448 6.23627 8.55391 6.05498C8.73837 5.87593 8.92284 5.69688 9.11289 5.5124C9.29194 5.32794 9.47099 5.14347 9.65547 4.95342C9.83143 4.77926 10.0074 4.60511 10.1887 4.42568C10.3489 4.26701 10.5092 4.10835 10.6743 3.94487C11.3589 3.49599 11.7967 3.51215 12.6004 3.5999Z" fill="#A0A0A0"/>
<path d="M13.4 9.19995C14.2546 9.90593 15.0804 10.64 15.8875 11.4C16.0605 11.5608 16.2335 11.7217 16.4117 11.8875C16.8 12.4 16.8 12.4 16.8961 13.014C16.7874 13.6765 16.6508 13.9115 16.175 14.375C16.059 14.4941 15.943 14.6132 15.8234 14.7359C15.1975 15.1262 14.9298 15.1546 14.2 15C13.579 14.5256 13.0575 13.97 12.525 13.4C12.3778 13.2473 12.2306 13.0947 12.0789 12.9375C11.7164 12.5608 11.357 12.1817 11 11.8C11.7677 10.893 12.5496 10.0301 13.4 9.19995Z" fill="#A0A0A0"/>
<path d="M5.60039 1.20007C6.22141 1.67437 6.74291 2.23003 7.27539 2.80007C7.4226 2.95269 7.56981 3.10532 7.72148 3.26257C8.08397 3.63918 8.44336 4.01829 8.80039 4.40007C8.012 5.37617 7.17649 6.21168 6.20039 7.00007C5.66215 6.49672 5.13079 5.98665 4.60039 5.47507C4.44777 5.3325 4.29514 5.18993 4.13789 5.04304C3.03668 3.97132 3.03668 3.97132 2.86133 3.14382C3.01698 2.53518 3.17755 2.26127 3.62539 1.82507C3.79941 1.6464 3.79941 1.6464 3.97695 1.46413C4.6029 1.07378 4.87056 1.04541 5.60039 1.20007Z" fill="#A0A0A0"/>
<path d="M2.39969 11.4C2.4314 11.5449 2.46311 11.6898 2.49579 11.8391C2.79546 13.0808 3.06742 13.9132 3.99969 14.8C4.5691 15.1307 5.10671 15.2926 5.74969 15.425C5.90953 15.4585 6.06938 15.492 6.23407 15.5266C6.35472 15.5508 6.47538 15.575 6.59969 15.6C6.82469 16.35 6.82469 16.35 6.59969 16.8C5.21694 16.902 4.13751 16.8457 2.99969 16C2.05941 15.1116 1.23445 14.233 1.1786 12.8945C1.1751 12.3954 1.18226 11.8987 1.19969 11.4C1.69788 11.1509 1.88185 11.2446 2.39969 11.4Z" fill="#A0A0A0"/>
<path d="M4.38711 11.2C4.79961 11.4 4.79961 11.4 5.07461 12.0875C5.32385 12.855 5.32385 12.855 6.02461 13.0375C6.21436 13.0911 6.40411 13.1447 6.59961 13.2C6.78711 13.6 6.78711 13.6 6.79961 14C6.73361 14.132 6.66761 14.264 6.59961 14.4C5.04604 14.5339 5.04604 14.5339 4.31211 13.925C3.60994 13.2057 3.60994 13.2057 3.58008 12.6109C3.58659 12.2072 3.5931 11.8036 3.59961 11.4C3.99961 11.2 3.99961 11.2 4.38711 11.2Z" fill="#A0A0A0"/>
</svg>
