<svg width="42" height="42" viewBox="0 0 42 42" fill="none" xmlns="http://www.w3.org/2000/svg">
<path d="M37.4464 10.3474L36.6819 9.90609C36.7716 9.43123 36.7716 8.94377 36.6819 8.46891L37.4464 8.02758C37.748 7.85353 37.968 7.56682 38.0582 7.23053C38.1483 6.89424 38.1012 6.53591 37.9271 6.23438C37.7531 5.93284 37.4664 5.71279 37.1301 5.62264C36.7938 5.53249 36.4355 5.57962 36.1339 5.75367L35.3677 6.19664C35.0011 5.88206 34.5795 5.63789 34.1242 5.47641V4.59375C34.1242 4.24565 33.9859 3.91181 33.7397 3.66567C33.4936 3.41953 33.1598 3.28125 32.8117 3.28125C32.4636 3.28125 32.1297 3.41953 31.8836 3.66567C31.6374 3.91181 31.4992 4.24565 31.4992 4.59375V5.47641C31.0438 5.63789 30.6222 5.88206 30.2556 6.19664L29.4894 5.75367C29.3401 5.66749 29.1753 5.61156 29.0043 5.58908C28.8334 5.5666 28.6597 5.578 28.4932 5.62264C28.3267 5.66728 28.1706 5.74427 28.0339 5.84924C27.8971 5.9542 27.7824 6.08507 27.6962 6.23438C27.61 6.38368 27.5541 6.5485 27.5316 6.71942C27.5091 6.89034 27.5205 7.06402 27.5652 7.23053C27.6098 7.39705 27.6868 7.55314 27.7917 7.6899C27.8967 7.82665 28.0276 7.9414 28.1769 8.02758L28.9414 8.46891C28.8517 8.94377 28.8517 9.43123 28.9414 9.90609L28.1769 10.3474C27.9265 10.4918 27.7308 10.7148 27.6202 10.9818C27.5095 11.2488 27.49 11.5449 27.5648 11.824C27.6396 12.1032 27.8045 12.3499 28.0338 12.5258C28.2631 12.7017 28.5441 12.797 28.8331 12.7969C29.0636 12.7976 29.2901 12.737 29.4894 12.6213L30.2556 12.1784C30.6222 12.4929 31.0438 12.7371 31.4992 12.8986V13.7812C31.4992 14.1293 31.6374 14.4632 31.8836 14.7093C32.1297 14.9555 32.4636 15.0938 32.8117 15.0938C33.1598 15.0938 33.4936 14.9555 33.7397 14.7093C33.9859 14.4632 34.1242 14.1293 34.1242 13.7812V12.8986C34.5795 12.7371 35.0011 12.4929 35.3677 12.1784L36.1339 12.6213C36.3332 12.737 36.5597 12.7976 36.7902 12.7969C37.0792 12.797 37.3602 12.7017 37.5895 12.5258C37.8188 12.3499 37.9837 12.1032 38.0585 11.824C38.1333 11.5449 38.1138 11.2488 38.0032 10.9818C37.8925 10.7148 37.6968 10.4918 37.4464 10.3474ZM31.4992 9.1875C31.4992 8.92791 31.5761 8.67415 31.7204 8.45831C31.8646 8.24247 32.0696 8.07425 32.3094 7.97491C32.5492 7.87557 32.8131 7.84958 33.0677 7.90022C33.3223 7.95086 33.5562 8.07587 33.7397 8.25942C33.9233 8.44298 34.0483 8.67684 34.0989 8.93144C34.1496 9.18604 34.1236 9.44994 34.0242 9.68977C33.9249 9.9296 33.7567 10.1346 33.5408 10.2788C33.325 10.423 33.0712 10.5 32.8117 10.5C32.4636 10.5 32.1297 10.3617 31.8836 10.1156C31.6374 9.86944 31.4992 9.5356 31.4992 9.1875ZM36.3144 17.0805C35.9711 17.138 35.6647 17.3295 35.4625 17.6128C35.2604 17.8962 35.1791 18.2483 35.2365 18.5916C35.3698 19.3875 35.4367 20.193 35.4367 21C35.4398 24.5342 34.1408 27.9457 31.7879 30.5829C30.3241 28.4617 28.2658 26.8206 25.8718 25.8661C27.1578 24.8532 28.0961 23.4648 28.5564 21.894C29.0167 20.3231 28.976 18.6478 28.4401 17.1011C27.9041 15.5544 26.8995 14.2132 25.5659 13.2639C24.2323 12.3147 22.6361 11.8046 20.9992 11.8046C19.3622 11.8046 17.766 12.3147 16.4324 13.2639C15.0988 14.2132 14.0942 15.5544 13.5582 17.1011C13.0223 18.6478 12.9816 20.3231 13.4419 21.894C13.9022 23.4648 14.8406 24.8532 16.1265 25.8661C13.7325 26.8206 11.6742 28.4617 10.2104 30.5829C8.36424 28.5025 7.15831 25.9332 6.7376 23.1837C6.3169 20.4343 6.69934 17.6219 7.83894 15.0847C8.97854 12.5474 10.8268 10.3934 13.1614 8.88153C15.4961 7.36968 18.2177 6.5644 20.9992 6.5625C21.8061 6.56237 22.6117 6.62932 23.4076 6.76266C23.7494 6.81658 24.0986 6.73338 24.3793 6.53115C24.6601 6.32891 24.8496 6.02401 24.9067 5.68277C24.9638 5.34152 24.8838 4.99153 24.6842 4.70894C24.4846 4.42634 24.1814 4.234 23.8407 4.17375C20.2764 3.57413 16.6137 4.12278 13.3815 5.7405C10.1493 7.35823 7.5148 9.9613 5.85846 13.1739C4.20212 16.3865 3.60961 20.0423 4.16647 23.6136C4.72334 27.1849 6.40076 30.4868 8.95655 33.0426C11.5123 35.5984 14.8143 37.2758 18.3855 37.8327C21.9568 38.3896 25.6127 37.797 28.8253 36.1407C32.0379 34.4844 34.6409 31.8499 36.2586 28.6177C37.8764 25.3855 38.425 21.7228 37.8254 18.1584C37.768 17.8151 37.5765 17.5087 37.2931 17.3066C37.0098 17.1044 36.6577 17.0231 36.3144 17.0805ZM15.7492 19.6875C15.7492 18.6491 16.0571 17.6341 16.6339 16.7708C17.2108 15.9074 18.0308 15.2345 18.9901 14.8371C19.9494 14.4398 21.005 14.3358 22.0234 14.5384C23.0418 14.7409 23.9772 15.241 24.7115 15.9752C25.4457 16.7094 25.9457 17.6449 26.1483 18.6633C26.3509 19.6817 26.2469 20.7373 25.8495 21.6966C25.4522 22.6559 24.7793 23.4758 23.9159 24.0527C23.0525 24.6296 22.0375 24.9375 20.9992 24.9375C19.6068 24.9375 18.2714 24.3844 17.2868 23.3998C16.3023 22.4152 15.7492 21.0799 15.7492 19.6875ZM12.1529 32.4023C13.1024 30.9174 14.4104 29.6953 15.9564 28.8488C17.5024 28.0024 19.2366 27.5587 20.9992 27.5587C22.7617 27.5587 24.4959 28.0024 26.0419 28.8488C27.5879 29.6953 28.8959 30.9174 29.8454 32.4023C27.3161 34.3694 24.2033 35.4374 20.9992 35.4374C17.795 35.4374 14.6822 34.3694 12.1529 32.4023Z" fill="white"/>
</svg>
