<svg width="53" height="53" viewBox="0 0 53 53" fill="none" xmlns="http://www.w3.org/2000/svg">
<path d="M36.4383 6.85731C38.642 8.26298 40.5508 9.93814 42.4008 11.7778C42.9109 11.2919 43.421 10.8061 43.9466 10.3055C45.4506 9.03432 45.8554 8.8406 47.9216 8.64928C48.4317 8.71001 48.9419 8.77074 49.4674 8.83331C49.7416 10.7068 49.7676 11.927 48.6807 13.5191C47.7935 14.5417 46.8885 15.5288 45.9341 16.4889C46.2203 17.1584 46.5065 17.8279 46.8013 18.5178C47.8 21.193 47.9976 23.5893 47.9584 26.4264C47.9527 26.8921 47.9469 27.3578 47.941 27.8376C47.7536 34.0238 45.7152 37.8125 41.4415 42.2827C36.139 47.2008 30.7967 48.0468 23.8048 47.8771C17.5885 47.5595 13.5808 44.5272 9.42299 40.0444C4.97547 34.3053 4.6936 28.1996 5.30077 21.2C6.32103 15.8591 10.0064 11.7082 14.2238 8.43995C20.4434 4.36917 29.6487 3.5922 36.4383 6.85731ZM41.6369 14.2375C41.3139 14.5618 40.9909 14.8861 40.6581 15.2202C40.2927 15.5857 39.9272 15.9512 39.5507 16.3278C38.9563 16.9267 38.9563 16.9267 38.3499 17.5378C37.9455 17.943 37.5411 18.3482 37.1245 18.7657C35.827 20.0665 34.5316 21.3693 33.2362 22.6722C32.3595 23.5518 31.4827 24.4313 30.6057 25.3107C28.4507 27.4723 26.2973 29.6355 24.1452 31.8C22.0058 30.8013 20.644 29.5987 18.9924 27.8986C18.5218 27.4173 18.0511 26.936 17.5662 26.4402C17.211 26.0712 16.8557 25.7023 16.4897 25.3222C15.9067 25.5165 15.3237 25.7109 14.723 25.9111C15.2489 28.8172 16.9996 30.2577 19.0292 32.2785C19.372 32.6379 19.7147 32.9973 20.0679 33.3677C20.403 33.7043 20.7381 34.041 21.0835 34.3879C21.3881 34.6967 21.6927 35.0055 22.0066 35.3237C22.9391 36.0454 22.9391 36.0454 24.0804 35.7775C25.5371 35.2568 26.2358 34.634 27.3203 33.5366C27.6974 33.1594 28.0745 32.7821 28.463 32.3935C28.863 31.9843 29.2631 31.5751 29.6752 31.1536C30.2977 30.5274 30.2977 30.5274 30.9326 29.8886C32.2568 28.5546 33.5746 27.2146 34.8924 25.8743C35.7892 24.9687 36.6863 24.0635 37.5838 23.1587C39.7831 20.94 41.9772 18.7164 44.1674 16.4889C43.7788 15.5172 43.3901 14.5455 42.9897 13.5444C42.3016 13.4785 42.3016 13.4785 41.6369 14.2375Z" fill="#03AB41"/>
</svg>
