<svg width="53" height="53" viewBox="0 0 53 53" fill="none" xmlns="http://www.w3.org/2000/svg">
<g clip-path="url(#clip0_1189_7458)">
<path d="M11.3878 1.61428C12.0441 1.61056 12.7005 1.60685 13.3767 1.60303C14.0883 1.60541 14.7999 1.6078 15.533 1.61025C16.6243 1.60856 16.6243 1.60856 17.7376 1.60684C19.6734 1.60583 21.6091 1.61058 23.545 1.61715C24.7332 1.61945 25.9213 1.61716 27.1095 1.61313C29.385 1.60587 31.6603 1.60673 33.9358 1.61025C34.6473 1.60787 35.3589 1.60548 36.0921 1.60303C36.7484 1.60674 37.4048 1.61045 38.081 1.61428C38.9505 1.61568 38.9505 1.61568 39.8376 1.61712C41.2233 1.76668 41.2233 1.76668 42.401 2.94445C42.5043 4.63391 42.5373 6.26574 42.5161 7.95461C42.5144 8.44964 42.5127 8.94467 42.511 9.45471C42.5044 11.0389 42.4896 12.6228 42.4747 14.207C42.4688 15.2797 42.4634 16.3524 42.4586 17.4251C42.4456 20.0576 42.4252 22.6899 42.401 25.3222C37.5213 26.1572 32.7363 26.7053 27.7892 26.8681C27.2059 26.8908 26.6225 26.9136 26.0214 26.9371C24.611 26.9916 23.2006 27.0422 21.7899 27.0889C21.7899 27.8662 21.7899 28.6436 21.7899 29.4445C24.1219 29.6388 26.4539 29.8331 28.8566 30.0333C28.2677 31.2111 27.6788 32.3889 27.0899 33.5667C25.873 33.8105 25.873 33.8105 24.4031 33.9347C23.9165 33.9788 23.4299 34.0228 22.9286 34.0681C22.5528 34.097 22.1771 34.1258 21.7899 34.1556C21.7899 34.9329 21.7899 35.7102 21.7899 36.5111C22.9559 36.7055 24.1219 36.8998 25.3233 37.1C25.5176 40.015 25.7119 42.93 25.9122 45.9333C23.4176 45.9604 20.9235 45.9838 18.4288 45.998C17.58 46.004 16.7312 46.012 15.8824 46.0222C14.6632 46.0365 13.4443 46.0432 12.2251 46.0484C11.1241 46.0576 11.1241 46.0576 10.0009 46.0671C8.24549 45.9333 8.24549 45.9333 7.06771 44.7556C6.91815 43.0345 6.91815 43.0345 6.91531 40.8024C6.91325 40.3963 6.91119 39.9902 6.90906 39.5718C6.90387 38.2264 6.90731 36.8812 6.91129 35.5358C6.91049 34.6029 6.90935 33.67 6.90787 32.737C6.90613 30.7806 6.90867 28.8242 6.91416 26.8678C6.92087 24.3567 6.91701 21.8457 6.90995 19.3346C6.9057 17.4079 6.90705 15.4811 6.91011 13.5543C6.91089 12.6283 6.90992 11.7023 6.90719 10.7762C6.9042 9.48327 6.90874 8.19054 6.91531 6.8976C6.91625 6.161 6.91719 5.4244 6.91815 4.66547C7.18783 1.56223 8.65318 1.6187 11.3878 1.61428ZM14.7233 11.1889C14.7233 11.9662 14.7233 12.7436 14.7233 13.5445C16.4324 14.399 17.9322 14.2098 19.8392 14.2116C20.2269 14.2121 20.6146 14.2127 21.014 14.2133C21.8337 14.2137 22.6535 14.2126 23.4732 14.2101C24.7294 14.207 25.9855 14.2101 27.2418 14.2139C28.0377 14.2135 28.8336 14.2127 29.6295 14.2116C30.356 14.2109 31.0825 14.2102 31.8309 14.2095C33.5278 14.2533 33.5278 14.2533 34.7455 13.5445C34.7455 12.7671 34.7455 11.9898 34.7455 11.1889C33.0364 10.3343 31.5366 10.5235 29.6295 10.5218C29.2418 10.5212 28.8542 10.5207 28.4548 10.5201C27.635 10.5197 26.8153 10.5208 25.9955 10.5232C24.7393 10.5264 23.4832 10.5233 22.227 10.5195C21.4311 10.5199 20.6352 10.5206 19.8392 10.5218C19.1128 10.5225 18.3863 10.5231 17.6378 10.5238C15.9409 10.4801 15.9409 10.4801 14.7233 11.1889ZM21.7899 20.0222C21.7899 20.7996 21.7899 21.5769 21.7899 22.3778C23.1271 23.0464 23.8763 23.0426 25.3601 23.0449C25.8292 23.0456 26.2983 23.0464 26.7817 23.0472C27.5173 23.0438 27.5173 23.0438 28.2677 23.0403C28.7581 23.0426 29.2485 23.0448 29.7537 23.0472C30.2229 23.0464 30.692 23.0457 31.1753 23.0449C31.821 23.0439 31.821 23.0439 32.4796 23.0429C33.624 23.0326 33.624 23.0326 34.7455 22.3778C34.7455 21.6005 34.7455 20.8231 34.7455 20.0222C33.4083 19.3536 32.6592 19.3574 31.1753 19.3551C30.7062 19.3544 30.2371 19.3536 29.7537 19.3528C29.0182 19.3562 29.0182 19.3562 28.2677 19.3597C27.7773 19.3575 27.2869 19.3552 26.7817 19.3528C26.3126 19.3536 25.8434 19.3543 25.3601 19.3551C24.7144 19.3561 24.7144 19.3561 24.0558 19.3571C22.9114 19.3674 22.9114 19.3674 21.7899 20.0222ZM14.7233 20.0222C14.7233 20.7996 14.7233 21.5769 14.7233 22.3778C15.5006 22.3778 16.2779 22.3778 17.0788 22.3778C17.0788 21.6005 17.0788 20.8231 17.0788 20.0222C16.3015 20.0222 15.5242 20.0222 14.7233 20.0222ZM14.7233 27.0889C14.7233 27.8662 14.7233 28.6436 14.7233 29.4445C15.5006 29.4445 16.2779 29.4445 17.0788 29.4445C17.0788 28.6671 17.0788 27.8898 17.0788 27.0889C16.3015 27.0889 15.5242 27.0889 14.7233 27.0889ZM14.7233 34.1556C14.7233 34.9329 14.7233 35.7102 14.7233 36.5111C15.5006 36.5111 16.2779 36.5111 17.0788 36.5111C17.0788 35.7338 17.0788 34.9565 17.0788 34.1556C16.3015 34.1556 15.5242 34.1556 14.7233 34.1556Z" fill="#FF000A"/>
<path d="M46.261 28.8233C49.328 30.6635 51.6426 33.181 53.001 36.5111C53.5144 40.8992 53.6428 44.9276 50.8985 48.5557C48.5893 51.0541 46.3006 52.8193 42.8887 53.2185C38.4024 53.3018 35.1835 53.1818 31.801 50.0555C28.3942 46.3797 27.9703 43.5122 28.0422 38.5676C28.4465 34.8792 30.0697 32.8587 32.7211 30.4014C36.7474 27.7172 41.6194 27.1058 46.261 28.8233ZM33.0524 36.0326C32.1321 38.3335 32.0366 40.5388 32.3899 42.9889C32.7786 43.5719 33.1672 44.1549 33.5677 44.7555C37.26 41.0632 40.9523 37.3709 44.7566 33.5666C40.5189 30.7415 36.2081 32.351 33.0524 36.0326ZM47.701 36.5111C44.0087 40.2034 40.3163 43.8958 36.5121 47.7C38.8953 49.2888 40.7801 49.2653 43.5788 48.8778C46.1596 47.5873 47.7992 46.2768 48.8788 43.5778C49.1899 40.7779 49.2922 38.8979 47.701 36.5111Z" fill="#FF000A"/>
</g>
<defs>
<clipPath id="clip0_1189_7458">
<rect width="53" height="53" fill="white"/>
</clipPath>
</defs>
</svg>
