<svg width="53" height="53" viewBox="0 0 53 53" fill="none" xmlns="http://www.w3.org/2000/svg">
<path d="M22.9648 3.53333C25.2968 3.53333 27.6288 3.53333 30.0315 3.53333C30.0315 4.69933 30.0315 5.86533 30.0315 7.06666C30.6995 7.18812 31.3675 7.30958 32.0558 7.43471C36.8312 8.64335 40.8813 11.813 43.5759 15.9C46.6311 21.0299 46.7863 27.1988 45.5634 32.9387C43.6775 38.3355 39.7984 42.2342 34.7886 44.8292C30.0899 46.8076 23.3824 46.765 18.585 45.05C13.51 42.615 9.83185 38.7397 7.65373 33.5667C6.01189 28.7153 6.40465 21.8038 8.60377 17.2204C11.308 12.8479 14.6373 9.60677 19.4315 7.65555C21.5294 7.17708 21.5294 7.17708 22.9648 7.06666C22.9648 5.90066 22.9648 4.73466 22.9648 3.53333ZM14.4628 16.1208C11.0013 20.7197 10.5205 24.9152 11.1871 30.6222C12.7003 35.6461 15.7054 38.4842 20.0572 41.1486C23.8651 42.5723 28.4929 42.4519 32.3388 41.2935C36.4934 39.3891 39.8953 36.2882 41.5286 31.9196C42.6005 26.9645 42.3488 22.148 39.7781 17.738C37.5165 14.6447 34.4396 12.015 30.6204 11.1889C24.2405 10.4886 18.9496 11.261 14.4628 16.1208Z" fill="#F8B335"/>
<path d="M28.2683 14.1333C28.2971 14.7573 28.326 15.3813 28.3557 16.0242C28.3999 16.8416 28.4444 17.659 28.4891 18.4764C28.5073 18.8878 28.5256 19.2993 28.5443 19.7232C28.6187 22.2022 28.6187 22.2022 30.035 24.1444C30.1914 25.2486 30.1914 25.2486 30.1822 26.5C30.1852 26.913 30.1883 27.3259 30.1914 27.7514C30.035 28.8555 30.035 28.8555 28.8572 30.0333C28.623 31.2042 28.4227 32.3827 28.2683 33.5667C26.06 34.2292 26.06 34.2292 24.735 33.5667C24.3198 32.1992 23.9269 30.8248 23.5572 29.4444C23.3629 29.2501 23.1685 29.0558 22.9683 28.8555C22.8074 25.4776 22.8074 25.4776 22.9683 24.1444C23.357 23.7558 23.7456 23.3671 24.1461 22.9667C24.3365 21.0604 24.4196 19.1806 24.4796 17.2676C24.5263 16.2204 24.6266 15.1759 24.735 14.1333C26.2018 13.3999 26.7435 13.6759 28.2683 14.1333Z" fill="#F8B335"/>
<path d="M38.8651 7.06661C40.4846 6.88258 40.4846 6.88258 42.3985 7.06661C43.8339 8.39161 43.8339 8.39161 44.754 10.0111C44.6068 11.3729 44.6068 11.3729 44.1651 12.3666C43.1714 12.8083 43.1714 12.8083 41.8096 12.9555C40.1589 11.919 39.1012 11.1732 38.3498 9.34855C38.2762 8.24439 38.2762 8.24439 38.8651 7.06661Z" fill="#F8B335"/>
</svg>
