<svg width="32" height="36" viewBox="0 0 32 36" fill="none" xmlns="http://www.w3.org/2000/svg">
<path d="M31.3891 25.8652C30.4786 24.2967 29.125 19.8588 29.125 14.0625C29.125 10.5815 27.7422 7.24314 25.2808 4.78172C22.8194 2.32031 19.481 0.9375 16.0001 0.9375C12.5191 0.9375 9.18069 2.32031 6.71928 4.78172C4.25786 7.24314 2.87505 10.5815 2.87505 14.0625C2.87505 19.8605 1.5199 24.2967 0.609348 25.8652C0.376823 26.2639 0.253553 26.7169 0.251969 27.1785C0.250384 27.6401 0.370541 28.0939 0.600323 28.4942C0.830105 28.8946 1.16139 29.2272 1.56076 29.4587C1.96013 29.6901 2.41346 29.8122 2.87505 29.8125H9.57044C9.87326 31.2942 10.6786 32.6259 11.8501 33.5823C13.0217 34.5387 14.4877 35.061 16.0001 35.061C17.5124 35.061 18.9784 34.5387 20.15 33.5823C21.3215 32.6259 22.1268 31.2942 22.4297 29.8125H29.125C29.5865 29.8119 30.0396 29.6896 30.4388 29.4581C30.8379 29.2265 31.169 28.8938 31.3985 28.4935C31.6281 28.0933 31.7481 27.6395 31.7465 27.1781C31.7448 26.7166 31.6216 26.2638 31.3891 25.8652ZM16.0001 32.4375C15.186 32.4372 14.392 32.1847 13.7275 31.7146C13.0629 31.2445 12.5603 30.58 12.289 29.8125H19.7111C19.4398 30.58 18.9372 31.2445 18.2726 31.7146C17.6081 32.1847 16.8141 32.4372 16.0001 32.4375ZM2.87505 27.1875C4.13833 25.0153 5.50005 19.9819 5.50005 14.0625C5.50005 11.2777 6.6063 8.60701 8.57543 6.63788C10.5446 4.66875 13.2153 3.5625 16.0001 3.5625C18.7848 3.5625 21.4555 4.66875 23.4247 6.63788C25.3938 8.60701 26.5 11.2777 26.5 14.0625C26.5 19.977 27.8585 25.0104 29.125 27.1875H2.87505Z" fill="white"/>
</svg>
