<svg width="18" height="18" viewBox="0 0 18 18" fill="none" xmlns="http://www.w3.org/2000/svg">
<g clip-path="url(#clip0_1237_14989)">
<path d="M3.86577 0.548254C4.08868 0.546994 4.3116 0.545733 4.54126 0.544434C4.78293 0.545243 5.0246 0.546053 5.27359 0.546887C5.64421 0.546313 5.64421 0.546313 6.02232 0.545728C6.67977 0.545385 7.33718 0.546999 7.99463 0.549231C8.39818 0.550011 8.80168 0.549234 9.20523 0.547864C9.97803 0.5454 10.7508 0.54569 11.5236 0.546887C11.7653 0.546078 12.0069 0.545268 12.2559 0.544434C12.4788 0.545694 12.7017 0.546955 12.9314 0.548254C13.2267 0.548732 13.2267 0.548732 13.528 0.549219C13.9986 0.600012 13.9986 0.600012 14.3986 1.00001C14.4337 1.57379 14.4449 2.128 14.4376 2.70157C14.4371 2.8697 14.4365 3.03782 14.4359 3.21104C14.4337 3.74906 14.4287 4.28701 14.4236 4.82501C14.4216 5.18933 14.4198 5.55366 14.4181 5.91798C14.4137 6.81202 14.4068 7.706 14.3986 8.60001C12.7413 8.88358 11.1162 9.06974 9.43609 9.12501C9.23796 9.13275 9.03983 9.14048 8.83569 9.14845C8.35669 9.16696 7.87768 9.18414 7.39859 9.20001C7.39859 9.46401 7.39859 9.72801 7.39859 10C8.19059 10.066 8.98259 10.132 9.79859 10.2C9.59859 10.6 9.39859 11 9.19859 11.4C8.7853 11.4828 8.7853 11.4828 8.28609 11.525C8.12083 11.54 7.95557 11.5549 7.7853 11.5703C7.65769 11.5801 7.53007 11.5899 7.39859 11.6C7.39859 11.864 7.39859 12.128 7.39859 12.4C7.79459 12.466 8.19059 12.532 8.59859 12.6C8.66459 13.59 8.73059 14.58 8.79859 15.6C7.95136 15.6092 7.10431 15.6172 6.25708 15.622C5.96879 15.624 5.68051 15.6267 5.39224 15.6302C4.9782 15.635 4.56421 15.6373 4.15015 15.6391C3.77624 15.6422 3.77624 15.6422 3.39478 15.6454C2.79859 15.6 2.79859 15.6 2.39859 15.2C2.34779 14.6155 2.34779 14.6155 2.34683 13.8574C2.34613 13.7195 2.34543 13.5816 2.3447 13.4395C2.34294 12.9826 2.34411 12.5257 2.34546 12.0688C2.34519 11.7519 2.3448 11.4351 2.3443 11.1182C2.34371 10.4538 2.34457 9.78936 2.34644 9.12492C2.34872 8.27209 2.3474 7.41931 2.34501 6.56649C2.34356 5.91211 2.34402 5.25775 2.34506 4.60337C2.34533 4.28887 2.345 3.97436 2.34407 3.65986C2.34305 3.22074 2.3446 2.7817 2.34683 2.34259C2.34715 2.09242 2.34746 1.84226 2.34779 1.58451C2.43938 0.530576 2.93705 0.549756 3.86577 0.548254ZM4.99859 3.80001C4.99859 4.06401 4.99859 4.32801 4.99859 4.60001C5.57904 4.89024 6.08841 4.82598 6.73609 4.82657C6.86775 4.82677 6.99941 4.82696 7.13506 4.82715C7.41346 4.82729 7.69186 4.82692 7.97027 4.82609C8.39691 4.82502 8.82351 4.82608 9.25015 4.82736C9.52046 4.82722 9.79077 4.82697 10.0611 4.82657C10.3078 4.82635 10.5545 4.82612 10.8087 4.82589C11.385 4.84075 11.385 4.84075 11.7986 4.60001C11.7986 4.33601 11.7986 4.07201 11.7986 3.80001C11.2181 3.50979 10.7088 3.57404 10.0611 3.57345C9.92942 3.57326 9.79776 3.57307 9.66211 3.57287C9.38371 3.57273 9.10531 3.5731 8.82691 3.57394C8.40026 3.57501 7.97366 3.57395 7.54702 3.57267C7.27671 3.5728 7.0064 3.57306 6.73609 3.57345C6.48936 3.57368 6.24263 3.5739 5.98843 3.57413C5.41214 3.55927 5.41214 3.55927 4.99859 3.80001ZM7.39859 6.80001C7.39859 7.06401 7.39859 7.32801 7.39859 7.60001C7.85273 7.82709 8.10715 7.8258 8.61109 7.82657C8.77041 7.82683 8.92974 7.82709 9.0939 7.82736C9.34372 7.8262 9.34372 7.8262 9.59859 7.82501C9.76513 7.82579 9.93168 7.82656 10.1033 7.82736C10.2626 7.8271 10.4219 7.82684 10.5861 7.82657C10.8054 7.82624 10.8054 7.82624 11.0291 7.82589C11.4177 7.82242 11.4177 7.82242 11.7986 7.60001C11.7986 7.33601 11.7986 7.07201 11.7986 6.80001C11.3444 6.57294 11.09 6.57423 10.5861 6.57345C10.4268 6.57319 10.2674 6.57293 10.1033 6.57267C9.85345 6.57383 9.85345 6.57383 9.59859 6.57501C9.43204 6.57424 9.26549 6.57347 9.0939 6.57267C8.93457 6.57293 8.77524 6.57318 8.61109 6.57345C8.39182 6.57379 8.39182 6.57379 8.16812 6.57413C7.77945 6.57761 7.77945 6.57761 7.39859 6.80001ZM4.99859 6.80001C4.99859 7.06401 4.99859 7.32801 4.99859 7.60001C5.26259 7.60001 5.52659 7.60001 5.79859 7.60001C5.79859 7.33601 5.79859 7.07201 5.79859 6.80001C5.53459 6.80001 5.27059 6.80001 4.99859 6.80001ZM4.99859 9.20001C4.99859 9.46401 4.99859 9.72801 4.99859 10C5.26259 10 5.52659 10 5.79859 10C5.79859 9.73601 5.79859 9.47201 5.79859 9.20001C5.53459 9.20001 5.27059 9.20001 4.99859 9.20001ZM4.99859 11.6C4.99859 11.864 4.99859 12.128 4.99859 12.4C5.26259 12.4 5.52659 12.4 5.79859 12.4C5.79859 12.136 5.79859 11.872 5.79859 11.6C5.53459 11.6 5.27059 11.6 4.99859 11.6Z" fill="#FF000A"/>
<path d="M15.7094 9.78904C16.7511 10.414 17.5371 11.269 17.9985 12.4C18.1729 13.8903 18.2165 15.2584 17.2844 16.4906C16.5002 17.3391 15.7229 17.9386 14.5641 18.0742C13.0405 18.1025 11.9473 18.0617 10.7985 17C9.64146 15.7516 9.49749 14.7777 9.52193 13.0984C9.65925 11.8458 10.2105 11.1596 11.111 10.325C12.4784 9.41338 14.1331 9.20574 15.7094 9.78904ZM11.2235 12.2375C10.9109 13.0189 10.8785 13.7679 10.9985 14.6C11.1305 14.798 11.2625 14.996 11.3985 15.2C12.6525 13.946 13.9065 12.692 15.1985 11.4C13.7593 10.4405 12.2952 10.9871 11.2235 12.2375ZM16.1985 12.4C14.9445 13.654 13.6905 14.908 12.3985 16.2C13.2079 16.7396 13.848 16.7316 14.7985 16.6C15.675 16.1617 16.2318 15.7166 16.5985 14.8C16.7042 13.8491 16.7389 13.2106 16.1985 12.4Z" fill="#FF000A"/>
</g>
<defs>
<clipPath id="clip0_1237_14989">
<rect width="18" height="18" fill="white"/>
</clipPath>
</defs>
</svg>
