<svg width="18" height="18" viewBox="0 0 18 18" fill="none" xmlns="http://www.w3.org/2000/svg">
<g opacity="0.5">
<path d="M11.2879 1.49995C12.4542 2.20472 13.3943 3.29766 13.8004 4.59995C13.9702 6.07978 13.9956 7.4776 13.1669 8.75542C12.5346 9.52245 11.8294 10.2057 11.1051 10.8843C10.2372 11.7711 9.90492 12.6055 9.60045 13.8C9.20445 13.8 8.80845 13.8 8.40045 13.8C8.33857 13.5442 8.2767 13.2885 8.21295 13.025C7.79418 11.7567 6.91414 10.9402 6.00045 9.99995C5.77287 9.7523 5.54748 9.50259 5.32545 9.24995C5.19319 9.103 5.19319 9.103 5.05826 8.95308C4.04628 7.56697 4.03494 6.26077 4.20045 4.59995C4.53937 3.26771 5.4918 2.36382 6.60045 1.59995C7.95681 0.917219 9.89506 0.882712 11.2879 1.49995ZM8.00045 5.39995C7.93378 5.99995 7.93378 5.99995 8.00045 6.59995C8.37745 7.06308 8.37745 7.06308 9.00045 7.04995C9.62345 7.06308 9.62345 7.06308 10.0004 6.59995C10.0671 5.99995 10.0671 5.99995 10.0004 5.39995C9.62345 4.93683 9.62345 4.93683 9.00045 4.94995C8.37745 4.93683 8.37745 4.93683 8.00045 5.39995Z" fill="#A0A0A0"/>
<path d="M3.0002 10.2C3.32034 10.1837 3.64072 10.1721 3.96113 10.1625C4.13951 10.1555 4.31788 10.1485 4.50166 10.1414C5.09723 10.2114 5.25386 10.3407 5.6252 10.8C5.74895 10.998 5.8727 11.196 6.0002 11.4C5.1092 11.499 5.1092 11.499 4.2002 11.6C3.8042 12.656 3.4082 13.712 3.0002 14.8C6.9602 14.8 10.9202 14.8 15.0002 14.8C14.6042 13.744 14.2082 12.688 13.8002 11.6C13.2062 11.534 12.6122 11.468 12.0002 11.4C12.5306 10.5512 12.5306 10.5512 13.0002 10.2C13.4987 10.1414 13.4987 10.1414 14.0393 10.1625C14.2192 10.1679 14.3992 10.1733 14.5847 10.1789C14.7904 10.1893 14.7904 10.1893 15.0002 10.2C15.3042 10.9359 15.6026 11.6739 15.9002 12.4125C16.029 12.724 16.029 12.724 16.1604 13.0417C16.2416 13.2448 16.3228 13.4478 16.4064 13.657C16.4819 13.8424 16.5573 14.0277 16.635 14.2188C16.8002 14.8 16.8002 14.8 16.8002 16.2C11.6522 16.2 6.5042 16.2 1.2002 16.2C1.2002 14.625 1.2002 14.625 1.59395 13.657C1.67516 13.454 1.75637 13.2509 1.84004 13.0417C1.92589 12.8341 2.01174 12.6264 2.1002 12.4125C2.18605 12.1994 2.2719 11.9863 2.36035 11.7667C2.5715 11.2436 2.78482 10.7214 3.0002 10.2Z" fill="#A0A0A0"/>
</g>
</svg>
