<svg width="17" height="16" viewBox="0 0 17 16" fill="none" xmlns="http://www.w3.org/2000/svg">
<path d="M11.5309 5.06249C11.2398 5.06232 10.9491 5.08584 10.6618 5.1328C10.5596 4.07696 10.1281 3.07998 9.42812 2.28289C8.7282 1.4858 7.79536 0.928969 6.76159 0.691161C6.66875 0.669832 6.57201 0.67243 6.48044 0.698713C6.38888 0.724995 6.30549 0.774101 6.2381 0.841425C6.17071 0.908749 6.12151 0.992086 6.09514 1.08362C6.06876 1.17516 6.06606 1.27189 6.08729 1.36476C6.15369 1.65515 6.18718 1.9521 6.18713 2.24999C6.18602 3.29394 5.77082 4.29481 5.03263 5.03299C4.29445 5.77117 3.29358 6.18637 2.24963 6.18749C1.95174 6.18753 1.6548 6.15404 1.3644 6.08765C1.27149 6.06627 1.17467 6.06886 1.08303 6.09517C0.991393 6.12149 0.907949 6.17066 0.840534 6.23808C0.773119 6.30549 0.723945 6.38894 0.697631 6.48057C0.671317 6.57221 0.668726 6.66903 0.690102 6.76194C0.841215 7.41355 1.11958 8.02888 1.5092 8.5726C1.89883 9.11631 2.39203 9.57768 2.96049 9.93022C2.5607 10.4749 2.31964 11.1197 2.26406 11.793C2.20849 12.4664 2.34058 13.1419 2.64568 13.7448C2.95077 14.3476 3.41693 14.8541 3.99243 15.2081C4.56793 15.562 5.23025 15.7496 5.90588 15.75H11.5309C12.9481 15.75 14.3073 15.187 15.3095 14.1848C16.3116 13.1827 16.8746 11.8235 16.8746 10.4062C16.8746 8.98899 16.3116 7.62979 15.3095 6.62764C14.3073 5.62549 12.9481 5.06249 11.5309 5.06249ZM2.06471 7.31249C2.12588 7.31249 2.18776 7.31249 2.24963 7.31249C3.59184 7.311 4.87864 6.77715 5.82772 5.82807C6.7768 4.87899 7.31065 3.59219 7.31213 2.24999C7.31213 2.18741 7.31213 2.12483 7.31213 2.06226C7.96033 2.36571 8.51287 2.84117 8.90959 3.43687C9.30631 4.03257 9.53202 4.72569 9.56213 5.44077C8.87535 5.71404 8.25235 6.1261 7.73211 6.65118C7.21187 7.17626 6.8056 7.80305 6.5387 8.49233C6.32973 8.45586 6.11801 8.43751 5.90588 8.43749C5.14973 8.43735 4.41237 8.67307 3.79651 9.11179C3.03998 8.71491 2.43238 8.08363 2.06471 7.31249Z" fill="#A0A0A0"/>
</svg>
