<svg width="36" height="36" viewBox="0 0 36 36" fill="none" xmlns="http://www.w3.org/2000/svg">
<path d="M34.6787 32.8214L26.4641 24.6084C28.845 21.75 30.0323 18.0837 29.7789 14.3722C29.5255 10.6606 27.851 7.18969 25.1036 4.68137C22.3563 2.17304 18.7477 0.820456 15.0285 0.904981C11.3093 0.989506 7.76585 2.50463 5.1353 5.13518C2.50476 7.76573 0.989628 11.3092 0.905103 15.0284C0.820578 18.7475 2.17316 22.3562 4.68149 25.1035C7.18982 27.8508 10.6608 29.5254 14.3723 29.7788C18.0838 30.0322 21.7501 28.8449 24.6086 26.464L32.8215 34.6786C32.9435 34.8005 33.0883 34.8973 33.2476 34.9633C33.4069 35.0293 33.5777 35.0632 33.7501 35.0632C33.9226 35.0632 34.0934 35.0293 34.2527 34.9633C34.412 34.8973 34.5568 34.8005 34.6787 34.6786C34.8007 34.5567 34.8974 34.4119 34.9634 34.2526C35.0294 34.0932 35.0634 33.9225 35.0634 33.75C35.0634 33.5776 35.0294 33.4068 34.9634 33.2475C34.8974 33.0881 34.8007 32.9434 34.6787 32.8214ZM3.56263 15.375C3.56263 13.0387 4.25542 10.7549 5.5534 8.81233C6.85137 6.86978 8.69623 5.35574 10.8547 4.46168C13.0131 3.56762 15.3882 3.33369 17.6796 3.78948C19.971 4.24527 22.0758 5.3703 23.7278 7.02231C25.3798 8.67432 26.5049 10.7791 26.9607 13.0705C27.4164 15.3619 27.1825 17.737 26.2885 19.8955C25.3944 22.0539 23.8804 23.8988 21.9378 25.1967C19.9952 26.4947 17.7114 27.1875 15.3751 27.1875C12.2433 27.184 9.24079 25.9384 7.02627 23.7239C4.81175 21.5094 3.5661 18.5068 3.56263 15.375Z" fill="#343330"/>
</svg>
